<?xml version="1.0" encoding="UTF-8" standalone="no"?>
<!-- Created with Inkscape (http://www.inkscape.org/) -->

<svg
   version="1.1"
   id="svg1"
   width="546.1333"
   height="546.1333"
   viewBox="0 0 546.1333 546.1333"
   sodipodi:docname="charging-limit-sym-for-symbolic.svg"
   inkscape:version="1.3 (0e150ed6c4, 2023-07-21)"
   xmlns:inkscape="http://www.inkscape.org/namespaces/inkscape"
   xmlns:sodipodi="http://sodipodi.sourceforge.net/DTD/sodipodi-0.dtd"
   xmlns="http://www.w3.org/2000/svg"
   xmlns:svg="http://www.w3.org/2000/svg">
  <defs
     id="defs1" />
  <sodipodi:namedview
     id="namedview1"
     pagecolor="#ffffff"
     bordercolor="#000000"
     borderopacity="0.25"
     inkscape:showpageshadow="2"
     inkscape:pageopacity="0.0"
     inkscape:pagecheckerboard="0"
     inkscape:deskcolor="#d1d1d1"
     inkscape:zoom="1.3293458"
     inkscape:cx="273.06665"
     inkscape:cy="273.06665"
     inkscape:window-width="2490"
     inkscape:window-height="1376"
     inkscape:window-x="70"
     inkscape:window-y="27"
     inkscape:window-maximized="1"
     inkscape:current-layer="g1" />
  <g
     inkscape:groupmode="layer"
     inkscape:label="Image"
     id="g1">
    <path
       style="fill:#000000"
       d="M 73.599649,434.17921 43.19965,433.59964 35.742069,429.86631 C 21.051496,422.51208 9.3706869,407.26535 6.4158593,391.58739 4.9835752,383.98787 4.9609652,172.44334 6.3911075,160.00269 7.7921992,147.81475 12.019169,139.28554 21.248422,130.02351 c 7.259724,-7.28551 12.360235,-10.45739 22.333572,-13.88873 5.6116,-1.93067 13.063837,-2.00178 209.772376,-2.00178 132.16221,0 205.97652,0.37745 209.69966,1.0723 14.93655,2.7876 29.88425,14.60429 36.64993,28.97307 4.25612,9.03904 5.87625,17.6969 5.8876,31.46283 l 0.008,9.77488 12.19247,0.35846 c 13.18777,0.38771 15.45697,1.24976 20.27495,7.70229 2.17446,2.91215 2.19924,3.82721 2.19924,81.18885 0,77.7445 -0.0142,78.26272 -2.23361,81.2554 -4.43806,5.98445 -9.37678,7.7749 -21.49972,7.79435 l -10.93333,0.0176 -0.0575,8.26667 c -0.11096,15.94885 -1.51534,24.11852 -5.63848,32.80068 -5.14794,10.84011 -13.34992,19.03291 -24.63181,24.60426 -8.3244,4.11085 -8.71225,4.19006 -24,4.9018 -18.02165,0.83901 -332.54789,0.73309 -377.672171,-0.12718 z M 459.90362,397.21176 c 1.56054,-0.78885 4.26398,-3.16504 6.00765,-5.28041 l 3.1703,-3.84613 0.42576,-23.76969 c 0.4145,-23.1407 0.49496,-23.87067 3.04071,-27.58594 4.28198,-6.24914 9.20342,-8.31816 21.38221,-8.98925 l 10.6027,-0.58424 v -52.51804 -52.51804 l -10.37297,-0.7777 c -5.70514,-0.42773 -11.58514,-1.23535 -13.06667,-1.7947 -3.09001,-1.16665 -8.20539,-5.75339 -9.89368,-8.87124 -0.65444,-1.20859 -1.45063,-12.3053 -1.84819,-25.75881 -0.77044,-26.07137 -0.87189,-26.47258 -8.08446,-31.97388 l -3.84321,-2.93136 -135.6454,-0.47789 c -74.60497,-0.26284 -165.81498,-0.11749 -202.68892,0.323 l -67.043522,0.8009 -3.782025,3.32066 c -7.045278,6.18584 -6.664252,-0.7144 -6.664252,120.68732 0,120.81968 -0.345765,114.24428 6.338199,120.53333 l 3.400942,3.2 79.130418,0.58275 c 43.52174,0.32051 134.81042,0.37595 202.86375,0.1232 100.81421,-0.37443 124.25889,-0.72523 126.57066,-1.89384 z M 149.33297,374.96737 c -3.12171,-1.64732 -17.71366,-15.52239 -41.73398,-39.68366 -40.351585,-40.58839 -39.956809,-40.06694 -39.117571,-51.66929 0.857729,-11.85799 10.096913,-20.44847 22.084487,-20.53388 3.726788,-0.0265 7.368722,0.67837 9.700404,1.8776 2.05333,1.05606 11.05333,9.18662 20,18.0679 l 16.26667,16.1478 0.006,-53.85376 c 0.004,-36.08522 0.39567,-55.2615 1.18712,-58.12042 1.78832,-6.45983 9.66644,-13.76542 16.61574,-15.40821 7.45263,-1.76178 15.39611,0.4551 20.9468,5.84586 7.29489,7.08471 7.11106,5.36615 7.11106,66.4797 v 55.05683 l 16.26666,-16.1478 c 8.94667,-8.88128 17.94667,-16.99179 20,-18.02335 8.73607,-4.38885 20.9104,-1.47653 27.56233,6.59342 5.84204,7.08741 6.67813,16.36804 2.24654,24.93688 -2.94708,5.69842 -75.36425,77.44183 -80.1746,79.42867 -5.79637,2.3941 -13.29101,2.00123 -18.9676,-0.99429 z m 209.06666,0 c -3.12172,-1.64732 -17.71367,-15.52239 -41.73398,-39.68366 -40.35159,-40.58839 -39.95682,-40.06694 -39.11758,-51.66929 0.85773,-11.85799 10.09691,-20.44847 22.08449,-20.53388 3.72679,-0.0265 7.36872,0.67837 9.7004,1.8776 2.05334,1.05606 11.05334,9.18662 20,18.0679 l 16.26667,16.1478 0.006,-53.85376 c 0.004,-36.08522 0.39566,-55.2615 1.18712,-58.12042 1.78831,-6.45983 9.66643,-13.76542 16.61573,-15.40821 7.45264,-1.76178 15.39611,0.4551 20.9468,5.84586 7.29489,7.08471 7.11106,5.36615 7.11106,66.4797 v 55.05683 l 16.26667,-16.1478 c 8.94667,-8.88128 17.94666,-16.99179 20,-18.02335 8.73607,-4.38885 20.91039,-1.47653 27.56233,6.59342 5.84204,7.08741 6.67812,16.36804 2.24653,24.93688 -2.94708,5.69842 -75.36424,77.44183 -80.1746,79.42867 -5.79637,2.3941 -13.29101,2.00123 -18.96759,-0.99429 z"
       id="path1" />
  </g>
</svg>
